<svg xmlns="http://www.w3.org/2000/svg" viewBox="0 0 200 160"><rect width="200" height="160" fill="#e0e7ff"/><rect x="20" y="55" width="160" height="60" rx="6" fill="#1e293b"/><g fill="#6366f1"><rect x="28" y="63" width="14" height="14" rx="2"/><rect x="46" y="63" width="14" height="14" rx="2"/><rect x="64" y="63" width="14" height="14" rx="2"/><rect x="82" y="63" width="14" height="14" rx="2"/><rect x="100" y="63" width="14" height="14" rx="2"/><rect x="118" y="63" width="14" height="14" rx="2"/><rect x="136" y="63" width="14" height="14" rx="2"/><rect x="154" y="63" width="18" height="14" rx="2"/><rect x="28" y="81" width="14" height="14" rx="2"/><rect x="46" y="81" width="14" height="14" rx="2"/><rect x="64" y="81" width="14" height="14" rx="2"/><rect x="82" y="81" width="14" height="14" rx="2"/><rect x="100" y="81" width="14" height="14" rx="2"/><rect x="118" y="81" width="14" height="14" rx="2"/><rect x="136" y="81" width="14" height="14" rx="2"/><rect x="154" y="81" width="18" height="14" rx="2"/><rect x="56" y="99" width="80" height="10" rx="2"/></g></svg>
